<svg width="14" height="14" viewBox="0 0 14 14" fill="none" xmlns="http://www.w3.org/2000/svg">
<path d="M12.25 12.8335H1.75C1.51083 12.8335 1.3125 12.6352 1.3125 12.396C1.3125 12.1568 1.51083 11.9585 1.75 11.9585H12.25C12.4892 11.9585 12.6875 12.1568 12.6875 12.396C12.6875 12.6352 12.4892 12.8335 12.25 12.8335Z" fill="#24A19C"/>
<path d="M11.095 2.03013C9.9633 0.898466 8.85496 0.869299 7.69413 2.03013L6.98829 2.73597C6.92996 2.7943 6.90663 2.88763 6.92996 2.9693C7.3733 4.51513 8.60996 5.7518 10.1558 6.19513C10.1791 6.20097 10.2025 6.2068 10.2258 6.2068C10.29 6.2068 10.3483 6.18347 10.395 6.1368L11.095 5.43097C11.6725 4.8593 11.9525 4.30513 11.9525 3.74513C11.9583 3.16763 11.6783 2.60763 11.095 2.03013Z" fill="#24A19C"/>
<path d="M9.10586 6.72596C8.93669 6.6443 8.77336 6.56263 8.61586 6.4693C8.48752 6.39346 8.36502 6.3118 8.24252 6.2243C8.14336 6.16013 8.02669 6.0668 7.91586 5.97346C7.90419 5.96763 7.86336 5.93263 7.81669 5.88596C7.62419 5.72263 7.40836 5.51263 7.21586 5.2793C7.19836 5.26763 7.16919 5.2268 7.12836 5.1743C7.07002 5.1043 6.97086 4.98763 6.88336 4.85346C6.81336 4.76596 6.73169 4.63763 6.65586 4.5093C6.56252 4.3518 6.48086 4.1943 6.39919 4.03096C6.38683 4.00448 6.37488 3.97814 6.36328 3.95194C6.2772 3.75751 6.02366 3.70066 5.8733 3.85102L2.53169 7.19263C2.45586 7.26846 2.38586 7.4143 2.36836 7.51346L2.05336 9.74763C1.99502 10.1443 2.10586 10.5176 2.35086 10.7685C2.56086 10.9726 2.85252 11.0835 3.16752 11.0835C3.23752 11.0835 3.30752 11.0776 3.37752 11.066L5.61752 10.751C5.72252 10.7335 5.86836 10.6635 5.93836 10.5876L9.27579 7.2502C9.42719 7.09879 9.37008 6.83894 9.17314 6.7549C9.15097 6.74545 9.12856 6.7358 9.10586 6.72596Z" fill="#24A19C"/>
</svg>
